#define close_pressed_width 10
#define close_pressed_height 9
static unsigned char close_pressed_bits[] = {
   0x00, 0x00, 0x00, 0x00, 0x0c, 0x03, 0x98, 0x01, 0xf0, 0x00, 0x60, 0x00,
   0xf0, 0x00, 0x98, 0x01, 0x0c, 0x03 };
