#define iconify_width 12
#define iconify_height 10
static unsigned char iconify_bits[] = {
 0x00, 0x00, 0x00, 0x00, 0x00, 0x00, 0x00, 0x00, 0x00, 0x00, 0x00, 0x00,
 0x00, 0x00, 0xF8, 0x01, 0xF8, 0x01, 0x00, 0x00 };
