#define iconify_pressed_width 12
#define iconify_pressed_height 10
static unsigned char iconify_pressed_bits[] = {
   0x00, 0x00, 0x00, 0x00, 0x00, 0x00, 0x00, 0x00, 0x00, 0x00, 0x00, 0x00,
   0x00, 0x00, 0x00, 0x00, 0xf0, 0x03, 0xf0, 0x03 };
