#define max_pressed_width 12
#define max_pressed_height 11
static unsigned char max_pressed_bits[] = {
   0x00, 0x00, 0x00, 0x00, 0x00, 0x00, 0xf8, 0x07, 0xf8, 0x07, 0x08, 0x04,
   0x08, 0x04, 0x08, 0x04, 0x08, 0x04, 0x08, 0x04, 0xf8, 0x07 };
