#define max_toggled_pressed_width 12
#define max_toggled_pressed_height 11
static unsigned char max_toggled_pressed_bits[] = {
   0x00, 0x00, 0x00, 0x00, 0xe0, 0x07, 0xe0, 0x07, 0x20, 0x04, 0xf8, 0x05,
   0xf8, 0x05, 0x08, 0x07, 0x08, 0x01, 0x08, 0x01, 0xf8, 0x01 };
